# xmcd
#
# Track frame offsets: 
#        150
#        14325
#        29087
#        43050
#        59525
#        76107
#        88845
#        104012
#        119557
#        135675
#        151720
#        164300
#        179600
#        194370
#        208775
#        222900
#        236712
#        251550
#        266012
#        281012
#
# Disc length: 3928 seconds
#
# Revision: 0
# Processed by: cddbd v1.5.2PL0 Copyright (c) Steve Scherf et al.
# Submitted via: ExactAudioCopy v1.0b3
#
DISCID=2f0f5614
DTITLE=Various Artist - 青春歌年鑑 戦前編2  昭和9年～12年 Disc 1 TECN-29750-1
DYEAR=1900
DGENRE=Blues
TTITLE0=国境の町
TTITLE1=急げ幌馬車 
TTITLE2=並木の雨
TTITLE3=ダイナ
TTITLE4=赤城の子守唄 
TTITLE5=大江戸出世小唄 
TTITLE6=旅笠道中 
TTITLE7=船頭可愛いや
TTITLE8=むらさき小唄
TTITLE9=明治一代女
TTITLE10=野崎小唄
TTITLE11=無情の夢
TTITLE12=緑の地平線 
TTITLE13=雨に咲く花
TTITLE14=二人は若い
TTITLE15=小さな喫茶店
TTITLE16=花言葉の唄
TTITLE17=エノケンの月光値千金
TTITLE18=人妻椿 
TTITLE19=男の純情 
EXTD=
EXTT0=
EXTT1=
EXTT2=
EXTT3=
EXTT4=
EXTT5=
EXTT6=
EXTT7=
EXTT8=
EXTT9=
EXTT10=
EXTT11=
EXTT12=
EXTT13=
EXTT14=
EXTT15=
EXTT16=
EXTT17=
EXTT18=
EXTT19=
PLAYORDER=
